Coordinates
nRows=213
nColumns=2
inDegrees=yes
endheader
time	ankle_angle_r	
6.3871	 18.661499	
6.42036	 18.647924	
6.45363	 18.681522	
6.4869	 18.678249	
6.52016	 18.735004	
6.55343	 18.600464	
6.58669	 18.689613	
6.61996	 18.706171	
6.65323	 18.587221	
6.68649	 18.614811	
6.71976	 18.647055	
6.75302	 18.630981	
6.78629	 18.632223	
6.81956	 18.692017	
6.85282	 18.555115	
6.88609	 18.631313	
6.91935	 18.676992	
6.95262	 18.646240	
6.98589	 18.585205	
7.01915	 18.676758	
7.05242	 18.585358	
7.08569	 18.646240	
7.11895	 18.677103	
7.15222	 18.645798	
7.18548	 18.632059	
7.21875	 18.659592	
7.25202	 18.601196	
7.28528	 18.661499	
7.31855	 18.736868	
7.35181	 18.678802	
7.38508	 18.708395	
7.41835	 18.647455	
7.45161	 18.633606	
7.48488	 18.690607	
7.51815	 18.696535	
7.55141	 18.661499	
7.58468	 18.671659	
7.61794	 18.646240	
7.65121	 18.569946	
7.68448	 18.628992	
7.71774	 18.610895	
7.75101	 18.617905	
7.78427	 18.633261	
7.81754	 18.638109	
7.85081	 18.615723	
7.88407	 18.651379	
7.91734	 18.605797	
7.9506	 18.557451	
7.98387	 18.639561	
8.01714	 18.542385	
8.0504	 18.655399	
8.08367	 18.630981	
8.11694	 18.680004	
8.1502	 18.634325	
8.18347	 18.630981	
8.21673	 18.623909	
8.25	 18.561954	
8.28327	 18.654039	
8.31653	 18.569946	
8.3498	 18.627493	
8.38306	 18.615723	
8.41633	 18.642124	
8.4496	 18.539429	
8.48286	 18.585205	
8.51613	 18.539429	
8.5494	 18.609470	
8.58266	 18.647699	
8.61593	 18.579340	
8.64919	 18.606136	
8.68246	 18.671867	
8.71573	 18.580219	
8.74899	 18.569946	
8.78226	 18.620903	
8.81552	 18.611017	
8.84879	 18.651613	
8.88206	 18.665817	
8.91532	 18.574072	
8.94859	 18.630981	
8.98185	 18.716774	
9.01512	 18.646240	
9.04839	 18.600464	
9.08165	 18.643082	
9.11492	 18.682905	
9.14819	 18.646240	
9.18145	 18.694595	
9.21472	 18.639803	
9.24798	 18.678949	
9.28125	 18.678757	
9.31452	 18.690212	
9.34778	 18.669933	
9.38105	 18.714195	
9.41431	 18.699034	
9.44758	 18.709337	
9.48085	 18.722534	
9.51411	 18.699968	
9.54738	 18.715582	
9.58065	 18.738050	
9.61391	 18.722599	
9.64718	 18.722404	
9.68044	 18.730003	
9.71371	 18.737793	
9.74698	 18.706566	
9.78024	 18.714453	
9.81351	 18.700193	
9.84677	 18.744778	
9.88004	 18.630981	
9.91331	 18.646240	
9.94657	 18.639545	
9.97984	 18.639643	
10.0131	 18.591707	
10.0464	 18.652645	
10.0796	 18.685709	
10.1129	 18.643404	
10.1462	 18.685902	
10.1794	 18.646240	
10.2127	 18.615723	
10.246	 18.604073	
10.2792	 18.701548	
10.3125	 18.590836	
10.3458	 18.636517	
10.379	 18.610285	
10.4123	 18.605804	
10.4456	 18.656254	
10.4788	 18.686869	
10.5121	 18.605621	
10.5454	 18.696972	
10.5786	 18.676073	
10.6119	 18.595703	
10.6452	 18.650904	
10.6784	 18.650808	
10.7117	 18.574417	
10.745	 18.718161	
10.7782	 18.668203	
10.8115	 18.515808	
10.8448	 18.574030	
10.878	 18.611734	
10.9113	 18.585205	
10.9446	 18.665293	
10.9778	 18.669363	
11.0111	 18.615723	
11.0444	 18.642736	
11.0776	 18.605501	
11.1109	 18.609100	
11.1442	 18.643026	
11.1774	 18.582088	
11.2107	 18.521149	
11.244	 18.673834	
11.2772	 18.658672	
11.3105	 18.674026	
11.3437	 18.664133	
11.377	 18.625906	
11.4103	 18.554688	
11.4435	 18.605152	
11.4768	 18.657005	
11.5101	 18.589506	
11.5433	 18.617777	
11.5766	 18.537472	
11.6099	 18.537569	
11.6431	 18.663263	
11.6764	 18.556355	
11.7097	 18.614153	
11.7429	 18.600464	
11.7762	 18.511665	
11.8095	 18.586485	
11.8427	 18.647425	
11.876	 18.630981	
11.9093	 18.645250	
11.9425	 18.663286	
11.9758	 18.630981	
12.0091	 18.646940	
12.0423	 18.706673	
12.0756	 18.691509	
12.1089	 18.676758	
12.1421	 18.707588	
12.1754	 18.661499	
12.2087	 18.676638	
12.2419	 18.707253	
12.2752	 18.676830	
12.3085	 18.676588	
12.3417	 18.722267	
12.375	 18.706549	
12.4083	 18.661499	
12.4415	 18.722534	
12.4748	 18.690710	
12.5081	 18.692017	
12.5413	 18.737793	
12.5746	 18.692961	
12.6079	 18.692017	
12.6411	 18.707275	
12.6744	 18.677992	
12.7077	 18.719873	
12.7409	 18.737793	
12.7742	 18.692017	
12.8075	 18.705656	
12.8407	 18.720818	
12.874	 18.674944	
12.9073	 18.663410	
12.9405	 18.663506	
12.9738	 18.674654	
13.0071	 18.705074	
13.0403	 18.722534	
13.0736	 18.628588	
13.1069	 18.554688	
13.1401	 18.577444	
13.1734	 18.628298	
13.2067	 18.636543	
13.2399	 18.661499	
13.2732	 18.606802	
13.3065	 18.649311	
13.3397	 18.707275	
13.373	 18.680021	
13.4062	 18.680119	
13.4395	 18.707275	
